Coordinates
version=1
nRows=24
nColumns=19
inDegrees=yes

Units are S.I. units (second, meters, Newtons, ...)
If the header above contains a line with 'inDegrees', this indicates whether rotational values are in degrees (yes) or radians (no).

endheader
time	pelvis_tilt	pelvis_list	pelvis_rotation	pelvis_tx	pelvis_ty	pelvis_tz	hip_flexion_r	hip_adduction_r	hip_rotation_r	knee_angle_r	knee_angle_r_beta	ankle_angle_r	hip_flexion_l	hip_adduction_l	hip_rotation_l	knee_angle_l	knee_angle_l_beta	ankle_angle_l
     13.13333333	     -9.07206259	      3.42373890	      5.47529053	      2.20916892	      1.01678585	      1.03219540	    -11.74702700	     -5.98804106	    -17.02336951	     57.79309322	      1.00867976	     -8.89767872	     30.98653377	      8.04662684	     -4.42286997	     13.63303412	      0.23794133	      6.02515446
     13.14000000	     -8.96150916	      3.34935741	      5.60090842	      2.20722505	      1.01274260	      1.03215570	    -10.01279206	     -5.63010893	    -15.14757775	     62.56763299	      1.09201120	     -8.90907049	     31.37186465	      7.94288177	     -4.58886900	     16.09538419	      0.28091745	      5.65142260
     13.14666667	     -8.85844320	      3.27637485	      5.77820351	      2.20500695	      1.00823148	      1.03244043	     -8.20692591	     -5.19209055	    -13.51972563	     67.28030562	      1.17426285	     -8.89698198	     31.94406795	      7.76553686	     -4.83968828	     19.16230986	      0.33444540	      5.43690665
     13.15333333	     -8.77867466	      3.19745921	      6.01146262	      2.20260011	      1.00321422	      1.03293785	     -6.34256559	     -4.74072589	    -12.20917237	     71.89262371	      1.25476299	     -8.78238151	     32.64604854	      7.53355818	     -5.05917874	     22.63856202	      0.39511745	      5.49284647
     13.16000000	     -8.67160032	      3.13606255	      6.27772402	      2.20008880	      0.99784917	      1.03356336	     -4.49175205	     -4.33890575	    -11.19467494	     76.35932799	      1.33272169	     -8.50668107	     33.33005587	      7.28254338	     -5.19954847	     26.29890404	      0.45900247	      5.84121522
     13.16666667	     -8.55645850	      3.10792855	      6.54339973	      2.19750201	      0.99226537	      1.03426996	     -2.62943275	     -4.04466922	    -10.41878405	     80.65997245	      1.40778209	     -8.03759700	     33.94752308	      7.04288132	     -5.23282655	     29.96571046	      0.52300031	      6.51785252
     13.17333333	     -8.48549275	      3.11129607	      6.83156413	      2.19486686	      0.98653308	      1.03490798	     -0.70021368	     -3.90054192	     -9.88042169	     84.77467737	      1.47959724	     -7.41649194	     34.50220754	      6.86280340	     -5.12571430	     33.50807787	      0.58482628	      7.53724131
     13.18000000	     -8.51970971	      3.16722523	      7.10917635	      2.19218110	      0.98078365	      1.03543403	      1.37544145	     -3.94744157	     -9.48550867	     88.68886568	      1.54791272	     -6.63808987	     35.01046370	      6.77479241	     -4.91879459	     36.81619876	      0.64256389	      8.87402247
     13.18666667	     -8.46334895	      3.28372525	      7.32181993	      2.18950153	      0.97547745	      1.03585169	      3.39942557	     -4.15886425	     -9.13977836	     92.35098369	      1.61182873	     -5.78003744	     35.21132926	      6.74875711	     -4.67119780	     39.78576361	      0.69439257	     10.49061986
     13.19333333	     -8.53570701	      3.43651006	      7.47445496	      2.18684250	      0.97045294	      1.03615383	      5.63105689	     -4.52796946	     -8.79180480	     95.76781943	      1.67146377	     -4.90335164	     35.32788516	      6.78159199	     -4.43186176	     42.38828146	      0.73981508	     12.29864894
     13.20000000	     -7.99780842	      3.88128928	      7.69771685	      2.18452139	      0.96686396	      1.03621485	      7.10379613	     -5.29395981	     -8.64823000	     98.76097399	      1.72370417	     -4.02936511	     34.42219197	      7.11911169	     -4.16080692	     44.41628060	      0.77521034	     14.28261056
     13.20666667	     -8.86672084	      3.88645003	      7.54864216	      2.18173901	      0.96204313	      1.03641359	     10.52402318	     -5.68738715	     -7.92787124	    101.73550219	      1.77561948	     -3.24085894	     34.97160218	      7.03142111	     -4.02797090	     46.27144717	      0.80758910	     16.13912919
     13.21333333	     -8.39429110	      4.17355165	      7.66871617	      2.17961867	      0.95968634	      1.03619780	     12.24019808	     -6.39643424	     -7.70151313	    104.04134236	      1.81586398	     -2.62116767	     33.69938535	      7.27006716	     -3.67375091	     47.55863781	      0.83005482	     18.10955525
     13.22000000	     -9.08795618	      4.40788053	      7.28428784	      2.17736087	      0.95661280	      1.03645629	     15.59104201	     -7.01364706	     -6.74287436	    106.28867906	      1.85508741	     -1.99992684	     33.43903477	      7.29147880	     -3.87601893	     48.38997097	      0.84456432	     19.80463139
     13.22666667	     -9.24084944	      4.51793344	      7.06830767	      2.17555717	      0.95496375	      1.03647002	     18.25934608	     -7.46536331	     -6.10607019	    107.95300023	      1.88413529	     -1.51348954	     32.36864288	      7.30619690	     -3.71972735	     48.84963950	      0.85258705	     21.46543005
     13.23333333	     -8.97004122	      4.46457618	      7.05285747	      2.17402292	      0.95446758	      1.03617902	     20.37635610	     -7.74190899	     -5.81783202	    109.08836782	      1.90395119	     -1.22943003	     30.67690715	      7.26053639	     -3.25975504	     49.02832635	      0.85570572	     22.94919941
     13.24000000	     -9.55400989	      4.51936331	      6.53355562	      2.17274346	      0.95360596	      1.03645125	     23.64335035	     -8.01831582	     -4.92697209	    110.03638320	      1.92049718	     -0.95455537	     29.64265135	      7.09070207	     -3.51224936	     48.74633334	      0.85078402	     24.12212954
     13.24666667	     -9.48849454	      4.43939387	      6.19507074	      2.17189566	      0.95421803	      1.03652074	     26.01409707	     -8.09124400	     -4.43282159	    110.40969184	      1.92701265	     -0.71415878	     27.73744956	      6.87112842	     -3.42951492	     48.15939554	      0.84054002	     25.09497005
     13.25333333	     -9.49091538	      4.10696417	      6.03048726	      2.17135182	      0.95536205	      1.03637507	     28.30535828	     -7.93887864	     -4.29602146	    110.30602708	      1.92520336	     -0.45000812	     25.80452637	      6.50750774	     -3.07336581	     47.36933621	      0.82675088	     25.80558740
     13.26000000	     -9.61073259	      3.69600418	      5.89029778	      2.17113370	      0.95686868	      1.03627382	     30.59747034	     -7.70459175	     -4.31681553	    109.81114881	      1.91656610	     -0.13967125	     23.89517045	      6.04268209	     -2.77845498	     46.38025046	      0.80948808	     26.18399547
     13.26666667	     -9.47922027	      3.58372908	      5.22022445	      2.17120989	      0.95919135	      1.03681216	     32.66296507	     -7.39069375	     -3.75542114	    109.05596378	      1.90338564	      0.11774103	     21.45915173	      5.65392052	     -3.09364758	     44.91672395	      0.78394472	     26.32504327
     13.27333333	     -9.80835233	      3.02042712	      5.07740912	      2.17137843	      0.96137391	      1.03669523	     34.92653667	     -6.90618517	     -3.95630151	    107.85396554	      1.88240681	      0.50117601	     19.61476369	      5.06621560	     -2.77052621	     43.55806850	      0.76023171	     26.12831692
     13.28000000	     -9.69997053	      2.64146400	      4.60177207	      2.17217779	      0.96466049	      1.03697767	     36.56254545	     -6.38110962	     -3.91379832	    106.27788275	      1.85489898	      0.91211111	     17.09183103	      4.48171079	     -2.96846262	     41.81326618	      0.72977917	     25.56568264
     13.28666667	     -9.69767916	      2.11540208	      4.35041457	      2.17312410	      0.96821970	      1.03699836	     38.08259233	     -5.83376349	     -4.20557184	    104.34771866	      1.82121126	      1.39546613	     14.68100094	      3.85028231	     -2.88072757	     39.98119380	      0.69780347	     24.63367136
